<?xml version="1.0" encoding="utf-8"?>
<!-- Generator: Adobe Illustrator 19.2.0, SVG Export Plug-In . SVG Version: 6.00 Build 0)  -->
<svg version="1.1" id="logo" xmlns="http://www.w3.org/2000/svg" xmlns:xlink="http://www.w3.org/1999/xlink" x="0px" y="0px"
	 width="380px" viewBox="0 0 249 61" style="enable-background:new 0 0 249 61;" xml:space="preserve">
<style type="text/css">
	.st0{fill:#004F9E;stroke:#004F9E;}
	.st1{fill:none;stroke:#004F9E;}
	.st2{fill:#FBD8C9;stroke:#004F9E;}
	.st3{fill:#FFFFFF;stroke:#004F9E;}
	.st4{fill:#004F9E;}
	.st5{fill:#FFFFFF;}
	.st6{fill:none;stroke:#FFFFFF;stroke-width:2;}
	.st7{fill:#E20613;}
</style>
<g>
	<polygon class="st0" points="89,16.6 89,34.7 32.8,34.7 32.8,16.7 60.8,5.2 	"/>
	<line class="st1" x1="60.8" y1="5.2" x2="32.8" y2="16.6"/>
	<rect x="59.6" y="4.4" class="st1" width="2.6" height="1.8"/>
	<path class="st2" d="M47.9,27.6"/>
	<path class="st2" d="M67.3,14.8"/>
	<rect x="34.6" y="18.6" class="st3" width="26.3" height="14.5"/>
	<line class="st1" x1="47.7" y1="18.8" x2="47.7" y2="33.1"/>
	<line class="st1" x1="34.7" y1="25.9" x2="60.9" y2="25.9"/>
	<polygon class="st3" points="35.1,17 60.9,7 60.8,16.9 	"/>
	<path class="st1" d="M31.1,16.6c0,0.5,0.4,0.9,0.9,0.9c0.5,0,0.9-0.4,0.9-0.9c0,0,0,0,0,0"/>
	<polyline class="st1" points="60.8,34.8 32.8,34.8 32.8,16.6 32.8,34.8 89,34.8 89,16.6 60.9,5.3 32.8,16.6 	"/>
	<line class="st1" x1="47.8" y1="17" x2="47.8" y2="12.3"/>
	<line class="st1" x1="61" y1="5.2" x2="89" y2="16.6"/>
	<rect x="59.6" y="4.4" class="st0" width="2.6" height="1.8"/>
	<rect x="60.9" y="18.6" class="st3" width="26.3" height="14.5"/>
	<line class="st1" x1="74.2" y1="18.8" x2="74.2" y2="33.1"/>
	<line class="st1" x1="87.1" y1="25.9" x2="60.9" y2="25.9"/>
	<polygon class="st3" points="86.7,17 60.9,7 61,16.9 	"/>
	<path class="st1" d="M90.7,16.6c0,0.5-0.4,0.9-0.9,0.9c-0.5,0-0.9-0.4-0.9-0.9c0,0,0,0,0,0"/>
	<polyline class="st1" points="89,16.6 89,34.8 61,34.8 	"/>
	<line class="st1" x1="74" y1="17" x2="74" y2="12.3"/>
</g>
<g>
	<polygon class="st0" points="153.4,16.6 153.4,34.7 97.2,34.7 97.2,16.7 125.2,5.2 	"/>
	<line class="st1" x1="125.2" y1="5.2" x2="97.2" y2="16.6"/>
	<rect x="124" y="4.4" class="st1" width="2.6" height="1.8"/>
	<path class="st2" d="M112.3,27.6"/>
	<path class="st2" d="M131.7,14.8"/>
	<rect x="99" y="18.6" class="st3" width="26.3" height="14.5"/>
	<line class="st1" x1="112.1" y1="18.8" x2="112.1" y2="33.1"/>
	<line class="st1" x1="99.1" y1="25.9" x2="125.3" y2="25.9"/>
	<polygon class="st3" points="99.5,17 125.3,7 125.2,16.9 	"/>
	<path class="st1" d="M95.5,16.6c0,0.5,0.4,0.9,0.9,0.9c0.5,0,0.9-0.4,0.9-0.9c0,0,0,0,0,0"/>
	<polyline class="st1" points="125.2,34.7 97.2,34.7 97.2,16.6 97.2,34.7 153.4,34.7 153.4,16.6 125.3,5.3 97.2,16.6 	"/>
	<line class="st1" x1="112.2" y1="17" x2="112.2" y2="12.3"/>
	<line class="st1" x1="125.4" y1="5.2" x2="153.4" y2="16.6"/>
	<rect x="124" y="4.4" class="st0" width="2.6" height="1.8"/>
	<rect x="125.3" y="18.6" class="st3" width="26.3" height="14.5"/>
	<line class="st1" x1="138.6" y1="18.8" x2="138.6" y2="33.1"/>
	<line class="st1" x1="151.5" y1="25.9" x2="125.3" y2="25.9"/>
	<polygon class="st3" points="151.1,17 125.3,7 125.4,16.9 	"/>
	<path class="st1" d="M155.1,16.6c0,0.5-0.4,0.9-0.9,0.9c-0.5,0-0.9-0.4-0.9-0.9c0,0,0,0,0,0"/>
	<polyline class="st1" points="153.4,16.6 153.4,34.7 125.4,34.7 	"/>
	<line class="st1" x1="138.4" y1="17" x2="138.4" y2="12.3"/>
</g>
<g>
	<polygon class="st0" points="219.2,16.6 219.2,34.7 163,34.7 163,16.7 191,5.2 	"/>
	<line class="st1" x1="191" y1="5.2" x2="163" y2="16.6"/>
	<rect x="189.8" y="4.4" class="st1" width="2.6" height="1.8"/>
	<path class="st2" d="M178.1,27.6"/>
	<path class="st2" d="M197.6,14.8"/>
	<rect x="164.8" y="18.6" class="st3" width="26.3" height="14.5"/>
	<line class="st1" x1="177.9" y1="18.8" x2="177.9" y2="33.1"/>
	<line class="st1" x1="164.9" y1="25.9" x2="191.1" y2="25.9"/>
	<polygon class="st3" points="165.3,17 191.1,7 191,16.9 	"/>
	<path class="st1" d="M161.3,16.6c0,0.5,0.4,0.9,0.9,0.9c0.5,0,0.9-0.4,0.9-0.9c0,0,0,0,0,0"/>
	<polyline class="st1" points="191,34.7 163,34.7 163,16.6 163,34.7 219.2,34.7 219.2,16.6 191.1,5.3 163,16.6 	"/>
	<line class="st1" x1="178" y1="17" x2="178" y2="12.3"/>
	<line class="st1" x1="191.2" y1="5.2" x2="219.2" y2="16.6"/>
	<rect x="189.8" y="4.4" class="st0" width="2.6" height="1.8"/>
	<rect x="191.2" y="18.6" class="st3" width="26.3" height="14.5"/>
	<line class="st1" x1="204.4" y1="18.8" x2="204.4" y2="33.1"/>
	<line class="st1" x1="217.3" y1="25.9" x2="191.2" y2="25.9"/>
	<polygon class="st3" points="216.9,17 191.2,7 191.2,16.9 	"/>
	<path class="st1" d="M221,16.6c0,0.5-0.4,0.9-0.9,0.9c-0.5,0-0.9-0.4-0.9-0.9c0,0,0,0,0,0"/>
	<polyline class="st1" points="219.2,16.6 219.2,34.7 191.2,34.7 	"/>
	<line class="st1" x1="204.3" y1="17" x2="204.3" y2="12.3"/>
</g>
<path class="st4" d="M212.4,56.5v-6.7h5c0.7,0,0.9,0.2,0.9,1v4.7c0,0.7-0.1,1.1-0.9,1.1H212.4z"/>
<path class="st4" d="M178.7,52.7c-0.5-0.3-1.7-1-1.7-2.6c0-1.8,1.3-2.7,2.9-2.7c2,0,2.9,1.2,2.9,1.9c0,0.5-0.4,0.9-0.9,0.9
	c-0.6,0-0.7-0.3-1-0.7c-0.2-0.3-0.5-0.8-1-0.8c-0.5,0-0.8,0.4-0.8,0.9c0,0.7,0.4,1,1.8,1.7c0.9,0.5,2.3,1.2,2.3,3
	c0,2-1.6,2.8-3.1,2.8c-2.2,0-3.1-1.4-3.1-2.3c0-0.7,0.6-1,1-1c0.7,0,0.9,0.5,1.2,1c0.2,0.3,0.5,0.9,1.1,0.9c0.5,0,0.9-0.3,0.9-0.9
	c0-0.8-0.5-1.1-1.5-1.6L178.7,52.7z"/>
<path class="st4" d="M189.1,55.5c0,0.3,0,0.6-0.2,0.9c-0.2,0.3-1,0.7-2.4,0.7c-0.6,0-2.8,0-2.8-1.9c0-1.7,1.7-2.1,3.4-2.5V52
	c0-0.4,0-1-0.6-1c-0.5,0-0.6,0.4-0.7,0.6c-0.1,0.4-0.3,0.7-0.9,0.7c-0.6,0-0.9-0.4-0.9-0.8c0-0.7,0.9-1.6,2.9-1.6
	c0.5,0,1.1,0.1,1.5,0.3c0.7,0.4,0.7,1.2,0.7,1.6V55.5z M187.1,53.6c-0.7,0.2-1.4,0.4-1.4,1.4c0,0.7,0.4,1,0.8,1
	c0.6,0,0.6-0.5,0.6-0.8V53.6z M185.2,49.3c-0.6,0-1-0.4-1-0.9c0-0.6,0.5-0.9,1-0.9c0.5,0,1,0.3,1,0.9
	C186.3,48.8,186,49.3,185.2,49.3z M187.8,49.3c-0.6,0-1-0.4-1-0.9c0-0.6,0.5-0.9,1-0.9c0.5,0,1,0.3,1,0.9
	C188.9,48.8,188.6,49.3,187.8,49.3z"/>
<path class="st4" d="M192.9,54.5l1.1-4.1c0.1-0.3,0.1-0.3,0.3-0.3h1.1c0.1,0,0.2,0,0.2,0.2c0,0.1,0,0.1-0.1,0.2l-1.9,6.1
	c-0.1,0.2-0.1,0.3-0.3,0.3H192c-0.2,0-0.2-0.1-0.3-0.2l-2-6.1c0-0.2-0.1-0.2-0.1-0.2c0-0.1,0.1-0.2,0.2-0.2h1.6c0.2,0,0.3,0,0.3,0.3
	L192.9,54.5z"/>
<path class="st4" d="M199.6,52.9c0.5,0.2,1.5,0.7,1.5,2c0,0.9-0.5,2.1-2.5,2.1c-1.9,0-2.6-1-2.6-1.7c0-0.5,0.3-0.9,0.8-0.9
	c0.2,0,0.5,0.1,0.8,0.5c0,0.1,0.2,0.4,0.3,0.4c0.1,0.1,0.3,0.4,0.7,0.4c0.3,0,0.6-0.2,0.6-0.6c0-0.5-0.4-0.7-1-1l-0.6-0.3
	c-0.5-0.2-1.4-0.7-1.4-2c0-0.5,0.2-2,2.5-2c1.7,0,2.3,0.9,2.3,1.5c0,0.4-0.2,0.8-0.8,0.8c-0.5,0-0.7-0.3-0.9-0.6
	c-0.1-0.2-0.3-0.6-0.7-0.6c-0.4,0-0.6,0.3-0.6,0.6c0,0.6,0.5,0.8,0.9,1L199.6,52.9z"/>
<path class="st4" d="M204.1,55.6c0,0.8-0.1,1.7-0.4,2.6c-0.5,1.1-1.5,1.8-2.5,1.8c-0.2,0-0.3,0-0.4-0.1c-0.2-0.1-0.3-0.3-0.3-0.4
	c0-0.3,0.2-0.4,0.3-0.4c1.1-0.7,1.1-1.3,1.1-3.3v-5.3c0-0.2,0.1-0.3,0.3-0.3h1.5c0.3,0,0.3,0.1,0.3,0.3V55.6z M203.1,49.4
	c-0.6,0-1.1-0.3-1.1-0.9c0-0.5,0.3-0.9,1.1-0.9c0.7,0,1,0.5,1,0.9C204.1,49.1,203.6,49.4,203.1,49.4z"/>
<path class="st4" d="M208.1,57.1c-1.8,0-3.1-1.3-3.1-3.6c0-2.4,1.5-3.6,3.1-3.6c2.1,0,3.1,1.8,3.1,3.5
	C211.3,55.6,210,57.1,208.1,57.1z M208,51.1c-0.7,0-0.9,1.2-0.9,2.2c0,1,0.3,2.4,1,2.4c0.7,0,1-1.3,0.9-2.4
	C209,52.1,208.7,51.1,208,51.1z M206.8,49.3c-0.6,0-1-0.4-1-0.9c0-0.6,0.5-0.9,1-0.9c0.5,0,1,0.3,1,0.9
	C207.8,48.8,207.6,49.3,206.8,49.3z M209.4,49.3c-0.6,0-1-0.4-1-0.9c0-0.6,0.5-0.9,1-0.9c0.5,0,1,0.3,1,0.9
	C210.4,48.8,210.2,49.3,209.4,49.3z"/>
<path class="st4" d="M58.2,49.7h-5.7H29.9c-0.7,0-0.8,0.3-0.8,1v4.7c0,0.7,0.1,1,0.8,1h22.5h5.8h117.3l0-6.7H58.2z"/>
<path class="st5" d="M53.3,50.8c0-0.1,0-0.2,0.1-0.2c0.2-0.1,0.8-0.1,1.2-0.1c0.4,0,1.9,0,1.9,1.4c0,0.7-0.5,1.1-0.9,1.3l1.2,2
	c0,0.1,0.1,0.1,0.1,0.1c0,0.1-0.1,0.1-0.2,0.1h-0.9c-0.2,0-0.2,0-0.3-0.2l-0.8-1.7c0,0-0.1-0.1-0.1-0.1c-0.1,0-0.1,0.1-0.1,0.1v1.6
	c0,0.1,0,0.2-0.2,0.2h-0.8c-0.1,0-0.2,0-0.2-0.2V50.8z M54.5,52.9c0.3,0,0.9,0,0.9-0.9c0-0.8-0.5-0.9-0.8-0.9c0,0-0.1,0-0.2,0V52.9z
	"/>
<path class="st5" d="M58.6,55.5c-0.9,0-1.6-0.7-1.6-1.9c0-1.3,0.8-1.9,1.6-1.9c1.1,0,1.6,0.9,1.6,1.8C60.3,54.7,59.7,55.5,58.6,55.5
	z M58.6,52.4c-0.4,0-0.5,0.6-0.5,1.1c0,0.5,0.1,1.2,0.5,1.2c0.4,0,0.5-0.7,0.5-1.2C59.1,52.9,59,52.4,58.6,52.4z M58,51.4
	c-0.3,0-0.5-0.2-0.5-0.5c0-0.3,0.3-0.5,0.5-0.5c0.3,0,0.5,0.2,0.5,0.4C58.5,51.1,58.4,51.4,58,51.4z M59.4,51.4
	c-0.3,0-0.5-0.2-0.5-0.5c0-0.3,0.3-0.5,0.5-0.5c0.3,0,0.5,0.2,0.5,0.4C59.9,51.1,59.8,51.4,59.4,51.4z"/>
<path class="st5" d="M63.7,54.7c0,0.2,0,0.4-0.2,0.5c-0.2,0.1-0.7,0.3-1.2,0.3c-1.2,0-1.7-0.7-1.7-1.8c0-1,0.6-2,1.5-2
	c0.3,0,0.4,0.1,0.5,0.1v-1.6c0-0.2,0.1-0.2,0.2-0.2h0.7c0.1,0,0.2,0,0.2,0.2V54.7z M62.7,52.4c-0.1,0-0.2-0.1-0.3-0.1
	c-0.5,0-0.7,0.6-0.7,1.3c0,0.6,0.2,1.2,0.7,1.2c0.3,0,0.3-0.3,0.3-0.4V52.4z"/>
<path class="st5" d="M67,54.7c0,0.2,0,0.3-0.1,0.5c-0.1,0.2-0.5,0.4-1.3,0.4c-0.3,0-1.5,0-1.5-1c0-0.9,0.9-1.1,1.8-1.3v-0.4
	c0-0.2,0-0.5-0.3-0.5c-0.3,0-0.3,0.2-0.4,0.3c-0.1,0.2-0.2,0.4-0.5,0.4c-0.3,0-0.5-0.2-0.5-0.4c0-0.4,0.5-0.8,1.5-0.8
	c0.2,0,0.6,0,0.8,0.2c0.4,0.2,0.4,0.6,0.4,0.9V54.7z M66,53.6c-0.4,0.1-0.8,0.2-0.8,0.7c0,0.4,0.2,0.5,0.4,0.5
	c0.3,0,0.3-0.3,0.3-0.4V53.6z"/>
<path class="st5" d="M71.7,52.6l1.5,2.5c0,0.1,0.1,0.1,0.1,0.1c0,0.1-0.1,0.1-0.2,0.1h-1c-0.2,0-0.2,0-0.2-0.1l-1.2-2.1v2
	c0,0.2-0.1,0.2-0.2,0.2h-0.8c-0.1,0-0.2,0-0.2-0.2v-4.5c0-0.1,0-0.2,0.2-0.2h0.8c0.1,0,0.2,0,0.2,0.2v1.8l1.2-1.8
	c0.1-0.1,0.1-0.1,0.2-0.1h0.7c0,0,0.2,0,0.2,0.1c0,0,0,0.1-0.1,0.2L71.7,52.6z"/>
<path class="st5" d="M74.9,54.1l0.6-2.2c0-0.1,0.1-0.1,0.2-0.1h0.6c0,0,0.1,0,0.1,0.1c0,0,0,0.1,0,0.1l-1,3.2c0,0.1,0,0.1-0.2,0.1
	h-0.7c-0.1,0-0.1,0-0.2-0.1l-1-3.2c0-0.1,0-0.1,0-0.1c0-0.1,0.1-0.1,0.1-0.1h0.9c0.1,0,0.1,0,0.2,0.1L74.9,54.1z"/>
<path class="st5" d="M79.4,54.7c0,0.2,0,0.3-0.1,0.5c-0.1,0.2-0.5,0.4-1.3,0.4c-0.3,0-1.5,0-1.5-1c0-0.9,0.9-1.1,1.8-1.3v-0.4
	c0-0.2,0-0.5-0.3-0.5c-0.3,0-0.3,0.2-0.4,0.3c-0.1,0.2-0.2,0.4-0.5,0.4c-0.3,0-0.5-0.2-0.5-0.4c0-0.4,0.5-0.8,1.5-0.8
	c0.2,0,0.6,0,0.8,0.2c0.4,0.2,0.4,0.6,0.4,0.9V54.7z M78.3,53.6c-0.4,0.1-0.8,0.2-0.8,0.7c0,0.4,0.2,0.5,0.4,0.5
	c0.3,0,0.3-0.3,0.3-0.4V53.6z"/>
<path class="st5" d="M81.1,55.2c0,0.1,0,0.2-0.2,0.2h-0.8c-0.1,0-0.2,0-0.2-0.2v-2.9c0-0.2,0-0.3,0.2-0.4c0.4-0.2,1-0.3,1.4-0.3
	c0.2,0,0.9,0,0.9,0.6c0,0.2-0.2,0.4-0.4,0.4c-0.2,0-0.3-0.2-0.4-0.3c-0.1-0.1-0.1-0.2-0.3-0.2c-0.3,0-0.3,0.2-0.3,0.4V55.2z"/>
<path class="st5" d="M85.8,55.2c0,0.1,0,0.2-0.2,0.2h-0.8c-0.1,0-0.2,0-0.2-0.2v-2.4c0-0.2,0-0.3-0.1-0.4c-0.1-0.1-0.2-0.1-0.4-0.1
	c-0.4,0-0.4,0.4-0.4,0.6v2.4c0,0.1-0.1,0.1-0.2,0.2h-0.8c-0.1,0-0.2,0-0.2-0.2v-2.8c0-0.2,0-0.5,0.7-0.6c0.3-0.1,0.7-0.1,0.9-0.1
	c0.8,0,1,0.2,1.1,0.2c0.4,0.2,0.4,0.6,0.4,0.8V55.2z"/>
<path class="st5" d="M91.5,53.6c0,0.1-0.1,0.1-0.2,0.1h-2.9c-0.1,0-0.2,0-0.2-0.1v-0.3c0-0.1,0-0.1,0.2-0.1h2.9c0.1,0,0.2,0,0.2,0.1
	V53.6z"/>
<path class="st5" d="M96.6,53.4H96c-0.1,0-0.2,0-0.2-0.2v-0.4c0-0.1,0-0.2,0.2-0.2h1.5c0.2,0,0.2,0.1,0.2,0.2v1.6
	c0,0.2,0,0.3-0.1,0.4c-0.1,0.2-0.6,0.5-1.5,0.5c-0.4,0-0.7-0.1-0.9-0.2c-1-0.4-1.3-1.4-1.3-2.4c0-1.5,0.8-2.6,2.2-2.6
	c1.2,0,1.6,0.7,1.6,1.1c0,0.3-0.2,0.5-0.5,0.5c-0.3,0-0.4-0.2-0.5-0.4c-0.2-0.2-0.3-0.5-0.6-0.5c-0.7,0-0.9,1-0.9,1.7
	c0,1.1,0.3,1.9,1,1.9c0.4,0,0.4-0.3,0.4-0.5V53.4z"/>
<path class="st5" d="M99.4,55.2c0,0.1,0,0.2-0.2,0.2h-0.8c-0.1,0-0.2,0-0.2-0.2v-2.9c0-0.2,0-0.3,0.2-0.4c0.4-0.2,1-0.3,1.4-0.3
	c0.2,0,0.9,0,0.9,0.6c0,0.2-0.2,0.4-0.4,0.4c-0.2,0-0.3-0.2-0.4-0.3c-0.1-0.1-0.1-0.2-0.3-0.2c-0.3,0-0.3,0.2-0.3,0.4V55.2z"/>
<path class="st5" d="M103.7,54.7c0,0.2,0,0.3-0.1,0.5c-0.1,0.2-0.5,0.4-1.3,0.4c-0.3,0-1.5,0-1.5-1c0-0.9,0.9-1.1,1.8-1.3v-0.4
	c0-0.2,0-0.5-0.3-0.5c-0.3,0-0.3,0.2-0.4,0.3c-0.1,0.2-0.2,0.4-0.5,0.4c-0.3,0-0.5-0.2-0.5-0.4c0-0.4,0.5-0.8,1.5-0.8
	c0.2,0,0.6,0,0.8,0.2c0.4,0.2,0.4,0.6,0.4,0.9V54.7z M102.6,53.6c-0.4,0.1-0.8,0.2-0.8,0.7c0,0.4,0.2,0.5,0.4,0.5
	c0.3,0,0.3-0.3,0.3-0.4V53.6z"/>
<path class="st5" d="M107.4,55.2c0,0.1,0,0.2-0.2,0.2h-0.8c-0.1,0-0.2,0-0.2-0.2v-2.4c0-0.2,0-0.3-0.1-0.4c-0.1-0.1-0.2-0.1-0.4-0.1
	c-0.4,0-0.4,0.4-0.4,0.6v2.4c0,0.1-0.1,0.1-0.2,0.2h-0.8c-0.1,0-0.2,0-0.2-0.2v-2.8c0-0.2,0-0.5,0.7-0.6c0.3-0.1,0.7-0.1,0.9-0.1
	c0.8,0,1,0.2,1.1,0.2c0.4,0.2,0.4,0.6,0.4,0.8V55.2z"/>
<path class="st5" d="M111,54.7c0,0.2,0,0.4-0.2,0.5c-0.2,0.1-0.7,0.3-1.2,0.3c-1.2,0-1.7-0.7-1.7-1.8c0-1,0.6-2,1.5-2
	c0.3,0,0.4,0.1,0.5,0.1v-1.6c0-0.2,0.1-0.2,0.2-0.2h0.7c0.1,0,0.2,0,0.2,0.2V54.7z M109.9,52.4c-0.1,0-0.2-0.1-0.3-0.1
	c-0.5,0-0.7,0.6-0.7,1.3c0,0.6,0.2,1.2,0.7,1.2c0.3,0,0.3-0.3,0.3-0.4V52.4z"/>
<path class="st5" d="M116,51.5c-0.1-0.2-0.3-0.4-0.6-0.4c-0.5,0-0.8,0.5-0.8,1.5c0,0.7,0.1,1.2,0.4,1.5c0.3,0.3,0.6,0.4,0.8,0.4
	c0.3,0,0.5-0.2,0.7-0.2c0.1-0.1,0.2-0.1,0.3-0.1c0.1,0,0.3,0.1,0.3,0.3c0,0.3-0.5,1-1.5,1c-1.6,0-2.2-1.3-2.2-2.6
	c0-1.6,1-2.5,2.2-2.5c1,0,1.6,0.6,1.6,1c0,0.3-0.2,0.5-0.5,0.5c-0.2,0-0.4-0.1-0.4-0.2C116.1,51.6,116,51.5,116,51.5z"/>
<path class="st5" d="M120.2,54.7c0,0.2,0,0.3-0.1,0.5c-0.1,0.2-0.5,0.4-1.3,0.4c-0.3,0-1.5,0-1.5-1c0-0.9,0.9-1.1,1.8-1.3v-0.4
	c0-0.2,0-0.5-0.3-0.5c-0.3,0-0.3,0.2-0.4,0.3c-0.1,0.2-0.2,0.4-0.5,0.4c-0.3,0-0.5-0.2-0.5-0.4c0-0.4,0.5-0.8,1.5-0.8
	c0.2,0,0.6,0,0.8,0.2c0.4,0.2,0.4,0.6,0.4,0.9V54.7z M119.1,53.6c-0.4,0.1-0.8,0.2-0.8,0.7c0,0.4,0.2,0.5,0.4,0.5
	c0.3,0,0.3-0.3,0.3-0.4V53.6z"/>
<path class="st5" d="M122,52.3v2.9c0,0.1,0,0.2-0.1,0.2h-0.8c-0.1,0-0.2,0-0.2-0.2v-3h-0.3c-0.1,0-0.1,0-0.1-0.1
	c0-0.3,0-0.3,0.1-0.3h0.3c0-0.3,0-0.8,0.3-1.2c0.2-0.3,0.5-0.6,1-0.6c0.3,0,0.5,0.2,0.5,0.4c0,0.3-0.2,0.4-0.4,0.4
	c-0.1,0-0.2-0.1-0.3-0.1c-0.2,0-0.3,0.1-0.3,0.4c0,0.1,0.1,0.4,0.2,0.7h0.5c0.1,0,0.1,0,0.1,0.1v0.3c0,0.1,0,0.1-0.1,0.1H122z"/>
<path class="st5" d="M123.6,53.7c0,0.1,0,0.2,0.1,0.4c0.2,0.3,0.4,0.5,0.8,0.5c0.3,0,0.6-0.2,0.7-0.3c0.1-0.2,0.2-0.2,0.3-0.2
	c0.1,0,0.2,0.1,0.2,0.3c0,0.2-0.3,1.2-1.4,1.2c-1.2,0-1.6-1-1.6-1.9c0-1.4,0.9-1.9,1.6-1.9c1.1,0,1.4,1,1.4,1.4
	c0,0.3-0.2,0.3-0.3,0.3L123.6,53.7z M124.6,53c0-0.6-0.4-0.6-0.5-0.6c-0.4,0-0.6,0.4-0.6,0.8L124.6,53z M124.4,51.4
	c-0.1,0-0.1,0.1-0.2,0.1c-0.1,0-0.2-0.1-0.2-0.2c0-0.1,0.1-0.2,0.1-0.2l0.5-0.6c0.1-0.1,0.1-0.1,0.3-0.1c0.2,0,0.3,0.1,0.3,0.3
	c0,0.1-0.1,0.2-0.1,0.3L124.4,51.4z"/>
<path class="st5" d="M131.1,53.6c0,0.1-0.1,0.1-0.2,0.1h-2.9c-0.1,0-0.2,0-0.2-0.1v-0.3c0-0.1,0-0.1,0.2-0.1h2.9
	c0.1,0,0.2,0,0.2,0.1V53.6z"/>
<path class="st5" d="M136.2,53.4h-0.5c-0.1,0-0.2,0-0.2-0.2v-0.4c0-0.1,0-0.2,0.2-0.2h1.5c0.2,0,0.2,0.1,0.2,0.2v1.6
	c0,0.2,0,0.3-0.1,0.4c-0.1,0.2-0.6,0.5-1.5,0.5c-0.4,0-0.7-0.1-0.9-0.2c-1-0.4-1.3-1.4-1.3-2.4c0-1.5,0.8-2.6,2.2-2.6
	c1.2,0,1.6,0.7,1.6,1.1c0,0.3-0.2,0.5-0.5,0.5c-0.3,0-0.4-0.2-0.5-0.4c-0.2-0.2-0.3-0.5-0.6-0.5c-0.7,0-0.9,1-0.9,1.7
	c0,1.1,0.3,1.9,1,1.9c0.4,0,0.4-0.3,0.4-0.5V53.4z"/>
<path class="st5" d="M140.6,54.7c0,0.2,0,0.3-0.1,0.5c-0.1,0.2-0.5,0.4-1.3,0.4c-0.3,0-1.5,0-1.5-1c0-0.9,0.9-1.1,1.8-1.3v-0.4
	c0-0.2,0-0.5-0.3-0.5c-0.3,0-0.3,0.2-0.4,0.3c-0.1,0.2-0.2,0.4-0.5,0.4c-0.3,0-0.5-0.2-0.5-0.4c0-0.4,0.5-0.8,1.5-0.8
	c0.2,0,0.6,0,0.8,0.2c0.4,0.2,0.4,0.6,0.4,0.9V54.7z M139.5,53.6c-0.4,0.1-0.8,0.2-0.8,0.7c0,0.4,0.2,0.5,0.4,0.5
	c0.3,0,0.3-0.3,0.3-0.4V53.6z"/>
<path class="st5" d="M141.2,50.3c0-0.1,0.1-0.1,0.2-0.1h0.8c0.1,0,0.2,0,0.2,0.1v5c0,0.1,0,0.2-0.2,0.2h-0.8c-0.1,0-0.2,0-0.2-0.2
	V50.3z"/>
<path class="st5" d="M145.6,54.7c0,0.2,0,0.3-0.1,0.5c-0.1,0.2-0.5,0.4-1.3,0.4c-0.3,0-1.5,0-1.5-1c0-0.9,0.9-1.1,1.8-1.3v-0.4
	c0-0.2,0-0.5-0.3-0.5c-0.3,0-0.3,0.2-0.4,0.3c-0.1,0.2-0.2,0.4-0.5,0.4c-0.3,0-0.5-0.2-0.5-0.4c0-0.4,0.5-0.8,1.5-0.8
	c0.2,0,0.6,0,0.8,0.2c0.4,0.2,0.4,0.6,0.4,0.9V54.7z M144.6,53.6c-0.4,0.1-0.8,0.2-0.8,0.7c0,0.4,0.2,0.5,0.4,0.5
	c0.3,0,0.3-0.3,0.3-0.4V53.6z"/>
<path class="st5" d="M147.4,54.4l-0.6,0.8c-0.1,0.1-0.1,0.1-0.2,0.1H146c0,0-0.1,0-0.1-0.1c0,0,0-0.1,0.1-0.1l1-1.5l-0.9-1.6
	c0-0.1-0.1-0.1-0.1-0.2c0-0.1,0.1-0.1,0.1-0.1h0.8c0.1,0,0.2,0,0.2,0.1l0.4,0.8l0.5-0.8c0.1-0.1,0.1-0.1,0.2-0.1h0.5
	c0,0,0.1,0,0.1,0.1c0,0,0,0.1-0.1,0.1l-0.9,1.4l1,1.7c0,0,0,0.1,0,0.1c0,0.1-0.1,0.1-0.1,0.1h-0.9c-0.1,0-0.2,0-0.2-0.1L147.4,54.4z
	"/>
<path class="st5" d="M150.1,53.7c0,0.1,0,0.2,0.1,0.4c0.2,0.3,0.4,0.5,0.8,0.5c0.3,0,0.6-0.2,0.7-0.3c0.1-0.2,0.2-0.2,0.3-0.2
	c0.1,0,0.2,0.1,0.2,0.3c0,0.2-0.3,1.2-1.4,1.2c-1.2,0-1.6-1-1.6-1.9c0-1.4,0.9-1.9,1.6-1.9c1.1,0,1.4,1,1.4,1.4
	c0,0.3-0.2,0.3-0.3,0.3L150.1,53.7z M151.1,53c0-0.6-0.4-0.6-0.5-0.6c-0.4,0-0.6,0.4-0.6,0.8L151.1,53z"/>
<path class="st5" d="M155.8,55.2c0,0.1,0,0.2-0.2,0.2h-0.8c-0.1,0-0.2,0-0.2-0.2v-2.4c0-0.2,0-0.3-0.1-0.4c-0.1-0.1-0.2-0.1-0.4-0.1
	c-0.4,0-0.4,0.4-0.4,0.6v2.4c0,0.1-0.1,0.1-0.2,0.2h-0.8c-0.1,0-0.2,0-0.2-0.2v-2.8c0-0.2,0-0.5,0.7-0.6c0.3-0.1,0.7-0.1,0.9-0.1
	c0.8,0,1,0.2,1.1,0.2c0.4,0.2,0.4,0.6,0.4,0.8V55.2z"/>
<path class="st6" d="M41,30.2l8.7,14.4c0.2,0.4,0.4,0.6,0.4,0.8c0,0.6-0.5,0.7-0.9,0.7h-5.5c-0.9,0-1-0.1-1.4-0.8l-6.6-11.9v11.6
	c0,0.9-0.4,1-1,1h-4.6c-0.7,0-1-0.2-1-1V19.3c0-0.7,0.2-1,0.9-1h4.8c0.7,0,0.9,0.1,0.9,0.9v10.3l7-10.4c0.5-0.7,0.6-0.8,1.4-0.8h3.8
	c0.3,0,0.9,0,0.9,0.6c0,0.3-0.1,0.4-0.4,0.9L41,30.2z"/>
<path class="st6" d="M68.7,41.3c0,1.6,0,2.7-1.4,3.7c-1.1,0.8-3.7,1.7-7.2,1.7c-7,0-8.5-2.9-8.5-6.5V26.5c0-0.7,0.4-0.7,0.9-0.7h4.4
	c0.5,0,1,0,1,0.8v13.3c0,1,0,2.6,2.4,2.6c2.1,0,2.2-1.4,2.2-2.4V26.6c0-0.6,0.1-0.9,0.8-0.9h4.6c0.5,0,0.9,0.1,0.9,0.8V41.3z"/>
<path class="st6" d="M72.2,16.9c0-0.7,0.3-0.8,0.9-0.8h4.4c0.6,0,0.9,0.1,0.9,0.8v28.3c0,0.7-0.2,0.9-0.9,0.9h-4.4
	c-0.7,0-1-0.1-1-0.9V16.9z"/>
<path class="st6" d="M88.6,28.3v11.3c0,1.3,0,3.5,2.6,3.6c0.6,0,1.7,0,1.7,1.2c0,1.3-2.4,2.2-4.6,2.2c-0.9,0-2.9-0.1-4.4-1.7
	c-1.3-1.4-1.3-2.9-1.3-4.3V28.3c-0.7,0-2,0-2.1,0c-0.4,0-0.4-0.3-0.4-0.7c0-1.8,0-1.8,0.4-1.8c0.1,0,1.4,0,2.1,0v-2
	c0-0.7,0.1-0.9,0.7-1.3l4-2c0.2-0.1,0.4-0.2,0.7-0.2c0.7,0,0.7,0.8,0.7,1.1v4.5h2.6c0.5,0,0.7,0,0.9,0.4v1.5c0,0.6-0.3,0.7-0.9,0.7
	H88.6z"/>
<path class="st6" d="M111.3,41.3c0,1.6,0,2.7-1.4,3.7c-1.1,0.8-3.7,1.7-7.2,1.7c-7,0-8.5-2.9-8.5-6.5V26.5c0-0.7,0.4-0.7,0.9-0.7
	h4.4c0.5,0,1,0,1,0.8v13.3c0,1,0,2.6,2.4,2.6c2.1,0,2.2-1.4,2.2-2.4V26.6c0-0.6,0.1-0.9,0.8-0.9h4.6c0.5,0,0.9,0.1,0.9,0.8V41.3z"/>
<path class="st6" d="M121.1,45.2c0,0.7-0.2,0.9-0.9,0.9h-4.5c-0.7,0-0.9-0.2-0.9-0.9V28.9c0-1.3,0.2-1.8,1.1-2.2
	c2.2-1.2,5.9-1.5,7.7-1.5c1.1,0,5.2,0,5.2,3.6c0,1.4-0.9,2.6-2.3,2.6c-1.4,0-1.8-0.9-2.2-1.9c-0.3-0.7-0.7-1.2-1.6-1.2
	c-1.6,0-1.7,1.1-1.7,2V45.2z"/>
<path class="st6" d="M141,32.9c0-1.2-0.1-3.4-2.3-3.4c-1.1,0-1.8,0.6-2.1,0.9v14.8c0,0.7-0.3,0.9-0.9,0.9h-4.5
	c-0.8,0-0.9-0.3-0.9-0.9V16.8c0-0.6,0.3-0.8,0.9-0.8h4.5c0.7,0,0.9,0.1,0.9,0.8v10.3c0.9-0.7,2.6-2,5.3-2c1.1,0,2.8,0.2,4.2,1.8
	c1.2,1.5,1.2,3.2,1.3,4.3v13.8c0,0.6-0.1,0.9-0.9,0.9h-4.5c-0.7,0-0.9-0.1-0.9-0.9V32.9z"/>
<path class="st6" d="M167.8,41.3c0,1.6,0,2.7-1.4,3.7c-1.1,0.8-3.7,1.7-7.2,1.7c-7,0-8.5-2.9-8.5-6.5V26.5c0-0.7,0.4-0.7,0.9-0.7
	h4.4c0.5,0,1,0,1,0.8v13.3c0,1,0,2.6,2.4,2.6c2.1,0,2.2-1.4,2.2-2.4V26.6c0-0.6,0.1-0.9,0.8-0.9h4.6c0.5,0,0.9,0.1,0.9,0.8V41.3z"/>
<path class="st6" d="M181.2,34.1c1.5,0.7,4.5,2.2,4.5,6.1c0,2.7-1.6,6.4-7.4,6.4c-5.7,0-7.7-3.1-7.7-5c0-1.4,0.9-2.6,2.5-2.6
	c0.6,0,1.5,0.2,2.4,1.4c0.1,0.2,0.7,1.1,0.9,1.3c0.3,0.4,0.9,1.3,2,1.3c0.9,0,1.8-0.7,1.8-1.9c0-1.6-1.1-2.1-3.1-3.1l-1.7-0.8
	c-1.4-0.7-4.3-2.1-4.3-5.9c0-1.4,0.6-6.1,7.3-6.1c5,0,6.8,2.6,6.8,4.4c0,1.2-0.7,2.4-2.3,2.4c-1.5,0-2-0.9-2.6-1.9
	c-0.4-0.7-1-1.7-2.2-1.7c-1.2,0-1.7,1-1.7,1.9c0,1.7,1.5,2.4,2.8,2.9L181.2,34.1z"/>
<path class="st6" d="M192.8,36.3c0.1,0.6,0.2,1.4,0.6,2.1c0.9,1.7,2.5,2.7,4.4,2.7c1.8,0,3.2-0.9,4-1.7c0.8-0.9,1-1.1,1.6-1.1
	c0.6,0,1.2,0.5,1.2,1.5c0,1.2-1.5,6.8-7.8,6.8c-7,0-9.3-5.5-9.3-10.9c0-7.8,4.9-10.6,9.2-10.6c6.3,0,7.8,5.8,7.8,7.7
	c0,1.7-1,1.8-1.6,2L192.8,36.3z M198.5,32.4c-0.3-3.5-2.3-3.5-2.8-3.5c-2.3,0-3.3,2.2-3.3,4.4L198.5,32.4z"/>
<path class="st6" d="M213.9,28.3v11.3c0,1.3,0,3.5,2.6,3.6c0.6,0,1.7,0,1.7,1.2c0,1.3-2.4,2.2-4.6,2.2c-0.9,0-2.9-0.1-4.4-1.7
	c-1.3-1.4-1.3-2.9-1.3-4.3V28.3c-0.7,0-2,0-2.1,0c-0.4,0-0.4-0.3-0.4-0.7c0-1.8,0-1.8,0.4-1.8c0.1,0,1.4,0,2.1,0v-2
	c0-0.7,0.1-0.9,0.7-1.3l4-2c0.2-0.1,0.4-0.2,0.7-0.2c0.7,0,0.7,0.8,0.7,1.1v4.5h2.6c0.5,0,0.7,0,0.9,0.4v1.5c0,0.6-0.3,0.7-0.9,0.7
	H213.9z"/>
<path class="st7" d="M41,30.2l8.7,14.4c0.2,0.4,0.4,0.6,0.4,0.8c0,0.6-0.5,0.7-0.9,0.7h-5.5c-0.9,0-1-0.1-1.4-0.8l-6.6-11.9v11.6
	c0,0.9-0.4,1-1,1h-4.6c-0.7,0-1-0.2-1-1V19.3c0-0.7,0.2-1,0.9-1h4.8c0.7,0,0.9,0.1,0.9,0.9v10.3l7-10.4c0.5-0.7,0.6-0.8,1.4-0.8h3.8
	c0.3,0,0.9,0,0.9,0.6c0,0.3-0.1,0.4-0.4,0.9L41,30.2z"/>
<path class="st7" d="M68.7,41.3c0,1.6,0,2.7-1.4,3.7c-1.1,0.8-3.7,1.7-7.2,1.7c-7,0-8.5-2.9-8.5-6.5V26.5c0-0.7,0.4-0.7,0.9-0.7h4.4
	c0.5,0,1,0,1,0.8v13.3c0,1,0,2.6,2.4,2.6c2.1,0,2.2-1.4,2.2-2.4V26.6c0-0.6,0.1-0.9,0.8-0.9h4.6c0.5,0,0.9,0.1,0.9,0.8V41.3z"/>
<path class="st7" d="M72.2,16.9c0-0.7,0.3-0.8,0.9-0.8h4.4c0.6,0,0.9,0.1,0.9,0.8v28.3c0,0.7-0.2,0.9-0.9,0.9h-4.4
	c-0.7,0-1-0.1-1-0.9V16.9z"/>
<path class="st7" d="M88.6,28.3v11.3c0,1.3,0,3.5,2.6,3.6c0.6,0,1.7,0,1.7,1.2c0,1.3-2.4,2.2-4.6,2.2c-0.9,0-2.9-0.1-4.4-1.7
	c-1.3-1.4-1.3-2.9-1.3-4.3V28.3c-0.7,0-2,0-2.1,0c-0.4,0-0.4-0.3-0.4-0.7c0-1.8,0-1.8,0.4-1.8c0.1,0,1.4,0,2.1,0v-2
	c0-0.7,0.1-0.9,0.7-1.3l4-2c0.2-0.1,0.4-0.2,0.7-0.2c0.7,0,0.7,0.8,0.7,1.1v4.5h2.6c0.5,0,0.7,0,0.9,0.4v1.5c0,0.6-0.3,0.7-0.9,0.7
	H88.6z"/>
<path class="st7" d="M111.3,41.3c0,1.6,0,2.7-1.4,3.7c-1.1,0.8-3.7,1.7-7.2,1.7c-7,0-8.5-2.9-8.5-6.5V26.5c0-0.7,0.4-0.7,0.9-0.7
	h4.4c0.5,0,1,0,1,0.8v13.3c0,1,0,2.6,2.4,2.6c2.1,0,2.2-1.4,2.2-2.4V26.6c0-0.6,0.1-0.9,0.8-0.9h4.6c0.5,0,0.9,0.1,0.9,0.8V41.3z"/>
<path class="st7" d="M121.1,45.2c0,0.7-0.2,0.9-0.9,0.9h-4.5c-0.7,0-0.9-0.2-0.9-0.9V28.9c0-1.3,0.2-1.8,1.1-2.2
	c2.2-1.2,5.9-1.5,7.7-1.5c1.1,0,5.2,0,5.2,3.6c0,1.4-0.9,2.6-2.3,2.6c-1.4,0-1.8-0.9-2.2-1.9c-0.3-0.7-0.7-1.2-1.6-1.2
	c-1.6,0-1.7,1.1-1.7,2V45.2z"/>
<path class="st7" d="M141,32.9c0-1.2-0.1-3.4-2.3-3.4c-1.1,0-1.8,0.6-2.1,0.9v14.8c0,0.7-0.3,0.9-0.9,0.9h-4.5
	c-0.8,0-0.9-0.3-0.9-0.9V16.8c0-0.6,0.3-0.8,0.9-0.8h4.5c0.7,0,0.9,0.1,0.9,0.8v10.3c0.9-0.7,2.6-2,5.3-2c1.1,0,2.8,0.2,4.2,1.8
	c1.2,1.5,1.2,3.2,1.3,4.3v13.8c0,0.6-0.1,0.9-0.9,0.9h-4.5c-0.7,0-0.9-0.1-0.9-0.9V32.9z"/>
<path class="st7" d="M167.8,41.3c0,1.6,0,2.7-1.4,3.7c-1.1,0.8-3.7,1.7-7.2,1.7c-7,0-8.5-2.9-8.5-6.5V26.5c0-0.7,0.4-0.7,0.9-0.7
	h4.4c0.5,0,1,0,1,0.8v13.3c0,1,0,2.6,2.4,2.6c2.1,0,2.2-1.4,2.2-2.4V26.6c0-0.6,0.1-0.9,0.8-0.9h4.6c0.5,0,0.9,0.1,0.9,0.8V41.3z"/>
<path class="st7" d="M181.2,34.1c1.5,0.7,4.5,2.2,4.5,6.1c0,2.7-1.6,6.4-7.4,6.4c-5.7,0-7.7-3.1-7.7-5c0-1.4,0.9-2.6,2.5-2.6
	c0.6,0,1.5,0.2,2.4,1.4c0.1,0.2,0.7,1.1,0.9,1.3c0.3,0.4,0.9,1.3,2,1.3c0.9,0,1.8-0.7,1.8-1.9c0-1.6-1.1-2.1-3.1-3.1l-1.7-0.8
	c-1.4-0.7-4.3-2.1-4.3-5.9c0-1.4,0.6-6.1,7.3-6.1c5,0,6.8,2.6,6.8,4.4c0,1.2-0.7,2.4-2.3,2.4c-1.5,0-2-0.9-2.6-1.9
	c-0.4-0.7-1-1.7-2.2-1.7c-1.2,0-1.7,1-1.7,1.9c0,1.7,1.5,2.4,2.8,2.9L181.2,34.1z"/>
<path class="st7" d="M192.8,36.3c0.1,0.6,0.2,1.4,0.6,2.1c0.9,1.7,2.5,2.7,4.4,2.7c1.8,0,3.2-0.9,4-1.7c0.8-0.9,1-1.1,1.6-1.1
	c0.6,0,1.2,0.5,1.2,1.5c0,1.2-1.5,6.8-7.8,6.8c-7,0-9.3-5.5-9.3-10.9c0-7.8,4.9-10.6,9.2-10.6c6.3,0,7.8,5.8,7.8,7.7
	c0,1.7-1,1.8-1.6,2L192.8,36.3z M198.5,32.4c-0.3-3.5-2.3-3.5-2.8-3.5c-2.3,0-3.3,2.2-3.3,4.4L198.5,32.4z"/>
<path class="st7" d="M213.9,28.3v11.3c0,1.3,0,3.5,2.6,3.6c0.6,0,1.7,0,1.7,1.2c0,1.3-2.4,2.2-4.6,2.2c-0.9,0-2.9-0.1-4.4-1.7
	c-1.3-1.4-1.3-2.9-1.3-4.3V28.3c-0.7,0-2,0-2.1,0c-0.4,0-0.4-0.3-0.4-0.7c0-1.8,0-1.8,0.4-1.8c0.1,0,1.4,0,2.1,0v-2
	c0-0.7,0.1-0.9,0.7-1.3l4-2c0.2-0.1,0.4-0.2,0.7-0.2c0.7,0,0.7,0.8,0.7,1.1v4.5h2.6c0.5,0,0.7,0,0.9,0.4v1.5c0,0.6-0.3,0.7-0.9,0.7
	H213.9z"/>
</svg>
